<mxfile host="app.diagrams.net" modified="2022-03-04T19:57:18.524Z" agent="5.0 (Windows NT 10.0; Win64; x64) AppleWebKit/537.36 (KHTML, like Gecko) Chrome/99.0.4844.51 Safari/537.36" etag="GnEBHVRxdOw-GVTvBVFf" version="16.6.6" type="github">
  <diagram id="FV24pK-hbEwY-Ar3raKe" name="Page-1">
    <mxGraphModel dx="906" dy="1325" grid="1" gridSize="10" guides="1" tooltips="1" connect="1" arrows="1" fold="1" page="1" pageScale="1" pageWidth="827" pageHeight="1169" math="0" shadow="0">
      <root>
        <mxCell id="0" />
        <mxCell id="1" parent="0" />
        <mxCell id="z7jNF7RXqVHzCe1erXQH-5" value="" style="edgeStyle=orthogonalEdgeStyle;rounded=0;orthogonalLoop=1;jettySize=auto;html=1;" edge="1" parent="1" source="z7jNF7RXqVHzCe1erXQH-1" target="z7jNF7RXqVHzCe1erXQH-2">
          <mxGeometry relative="1" as="geometry" />
        </mxCell>
        <mxCell id="z7jNF7RXqVHzCe1erXQH-1" value="Post" style="rounded=0;whiteSpace=wrap;html=1;" vertex="1" parent="1">
          <mxGeometry x="50" y="320" width="120" height="60" as="geometry" />
        </mxCell>
        <mxCell id="z7jNF7RXqVHzCe1erXQH-2" value="Service&lt;br&gt;" style="whiteSpace=wrap;html=1;aspect=fixed;" vertex="1" parent="1">
          <mxGeometry x="250" y="280" width="140" height="140" as="geometry" />
        </mxCell>
        <mxCell id="z7jNF7RXqVHzCe1erXQH-6" value="&lt;h1&gt;Requirements&lt;/h1&gt;" style="text;html=1;strokeColor=none;fillColor=none;spacing=5;spacingTop=-20;whiteSpace=wrap;overflow=hidden;rounded=0;" vertex="1" parent="1">
          <mxGeometry x="240" y="40" width="170" height="50" as="geometry" />
        </mxCell>
      </root>
    </mxGraphModel>
  </diagram>
</mxfile>
